<svg xmlns="http://www.w3.org/2000/svg"><symbol id="icons-ig-256" viewBox="0 0 256 256"><path d="M223.2 3.1H32.8C16.4 3.1 3.1 16.4 3.1 32.7v190.6c0 16.4 13.3 29.6 29.7 29.6h190.4c16.4 0 29.7-13.3 29.7-29.6V32.7c0-16.3-13.3-29.6-29.7-29.6zm-40.6 39c0-4.3 3.5-7.8 7.8-7.8h23.4c4.3 0 7.8 3.5 7.8 7.8v23.4c0 4.3-3.5 7.8-7.8 7.8h-23.4c-4.3 0-7.8-3.5-7.8-7.8V42.1zm-54.3 38.3c26.5 0 48 21.5 48 47.9 0 26.5-21.5 47.9-48 47.9s-48-21.5-48-47.9c0-26.5 21.5-47.9 48-47.9zm101.2 141.3c0 4.3-3.5 7.8-7.8 7.8H34.3c-4.3 0-7.8-3.5-7.8-7.8V104.6h31.2c-4.1 5.9-5.4 16.8-5.4 23.7 0 41.8 34.1 75.8 76 75.8s76-34 76-75.8c0-6.9-1-17.7-6-23.7h31.2v117.1z"/></symbol><symbol id="icons-glass-256" viewBox="0 0 256 256"><path fill="#231F20" d="M161.8 12.2C121.1 12.2 88 45.3 88 86c0 18.9 7.2 36.1 18.9 49.1l-93.3 101c-3 3.3-2.8 8.4.5 11.4 1.5 1.4 3.5 2.1 5.5 2.1 2.2 0 4.3-.9 5.9-2.6l93.4-101.2c12.1 8.7 26.9 13.9 42.9 13.9 40.7 0 73.8-33.1 73.8-73.8 0-40.6-33.1-73.7-73.8-73.7zm0 131.5c-31.8 0-57.7-25.9-57.7-57.7 0-31.8 25.9-57.7 57.7-57.7 31.8 0 57.7 25.9 57.7 57.7 0 31.8-25.9 57.7-57.7 57.7z"/></symbol><symbol id="icons-fb-256" viewBox="0 0 256 256"><path d="M249 232.9c0 7.4-6 13.4-13.4 13.4H174v-93.7h31.5l4.7-36.5H174V92.7c0-10.6 2.9-17.8 18.1-17.8h19.3V42.3c-3.3-.4-14.8-1.4-28.2-1.4-27.9 0-47 17-47 48.3v26.9h-31.5v36.5h31.5v93.7H20.4c-7.4 0-13.4-6-13.4-13.4V17.7c0-7.4 6-13.4 13.4-13.4h215.3c7.4 0 13.4 6 13.4 13.4v215.2z"/></symbol><symbol id="icons-scoop-256" viewBox="0 0 256 256"><circle cx="182.2" cy="169.6" r="22.4" fill="none" stroke="#231F20" stroke-linecap="round" stroke-linejoin="round" stroke-miterlimit="10" stroke-width="5.78"/><path fill="#231F20" d="M252.3 102.5c-.2-1.3-1.4-2.3-2.7-2.4L42.9 93.4 8.4 64.7c-1.2-1-3.1-.9-4.1.4-1 1.2-.9 3.1.4 4.1l69.8 58-22.8 38c-.7 1.2-.5 2.6.5 3.6.6.5 1.3.8 2 .8.5 0 1.1-.2 1.6-.5l38.7-25.3 21.5 17.9c.5.4 1.2.7 1.8.7.4 0 .8-.1 1.1-.2l131.6-56.4c1.3-.6 2-2 1.8-3.3zM63.2 157.3L79 130.9l10.8 9-26.6 17.4zm55.2-1.2L50.2 99.4l186.2 6.1-118 50.6z"/></symbol><symbol id="icons-lin-256" viewBox="0 0 256 256"><path d="M14.3 80.1h46.5v147.2H14.3zm173.4-1.4c-26.6 0-43.3 14.4-46.4 24.5V80.1H89.2c.7 12.3 0 147.2 0 147.2h52.2v-79.6c0-4.4-.2-8.9 1.1-12 3.6-8.9 11.3-18 25.2-18 18.1 0 26.4 13.6 26.4 33.5v76.2h52.7v-81.8c-.1-45.7-26.1-66.9-59.1-66.9zm-151-68c-17.2 0-28.4 11-28.4 25.6 0 14.3 10.9 25.5 27.7 25.5h.3c17.5 0 28.3-11.3 28.3-25.6-.2-14.5-10.8-25.5-27.9-25.5z"/></symbol><symbol id="icons-vimeo-256" viewBox="0 0 256 256"><path d="M215.1 23c-34.2-1.1-57.3 17.8-69.5 56.8 6.2-2.6 12.3-3.8 18.2-3.8 12.5 0 18 6.9 16.5 20.7-.8 8.4-6.2 20.6-16.5 36.6s-18 24-23.2 24c-6.6 0-12.7-12.3-18.2-37.1-1.8-7.3-5.2-25.8-9.9-55.7-4.4-27.6-16.2-40.6-35.3-38.7-8.1.8-20.2 8-36.4 21.8C29.1 58.1 17.1 68.6 5 79.2L16.6 94c11-7.7 17.4-11.6 19.3-11.6 8.4 0 16.3 13.1 23.7 39.3 6.6 24 13.2 48 19.9 72 9.9 26.2 22 39.3 36.4 39.3 23.2 0 51.5-21.5 84.9-64.4 32.3-41.1 49.1-73.4 50.1-97.1 1.5-31.6-10.5-47.8-35.8-48.5z"/></symbol></svg>