<svg xmlns="http://www.w3.org/2000/svg" width="32" height="32" viewBox="0 0 32 32"><path fill="none" stroke="#231F20" stroke-linecap="round" stroke-linejoin="round" stroke-miterlimit="10" stroke-width=".36" d="M20.3 10.3l2.3.3"/><path fill="#231F20" d="M31.1 10.7l-9-2.4-.2-2c0-.2-.1-.3-.3-.3-.1 0-.3 0-.4.2l-1 1.6-.5-.1c-.1 0-.2 0-.3.1l-17.8 16c-.1.1-.2.3 0 .5l1.7 2.2c.1.1.2.2.4.1 0 0 .1 0 .1-.1l12.7-9.2 10.2-2.2c.2 0 .3-.2.3-.4s-.1-.3-.3-.3l-4.2-.6 8.7-2.5c.2 0 .3-.2.3-.4-.1-.1-.2-.2-.4-.2zM4.6 22l.8-.8 1.5 2-.9.8-1.4-2zm1.1 2.2l-.8.6L3.5 23l.8-.7 1.4 1.9zm-3.4-.1l.9-.8L4.5 25l-1 .7-1.2-1.6zm18.3-10.5c-.2 0-.3.2-.3.4s.1.3.3.3l3.9.6-8.3 1.7s-.1 0-.1.1l-8.9 6.4-1.5-2 14-12.7.6.2c.2 0 .3 0 .4-.2l.6-1 .1 1.2c0 .1.1.3.3.3l8 2.1-9.1 2.6z"/></svg>