<svg xmlns="http://www.w3.org/2000/svg" width="256" height="256" viewBox="0 0 256 256"><path fill="none" stroke="#231F20" stroke-linecap="round" stroke-linejoin="round" stroke-miterlimit="10" stroke-width="2.9" d="M170.3 93.2l17.4 6.5"/><path fill="#231F20" d="M252 114.3l-65.5-32.8 1.5-15.3c.1-1.2-.5-2.3-1.6-2.8s-2.4-.3-3.2.6l-10.6 10.6-3.9-1.9c-.9-.4-1.9-.4-2.7.1L4.2 167.4c-1.3.8-1.8 2.4-1.1 3.7l9.6 19.3c.5 1 1.5 1.6 2.5 1.6.4 0 .8-.1 1.2-.2l112.4-50.3h81.9c1.4 0 2.6-1 2.8-2.3.2-1.4-.5-2.7-1.8-3.2l-31.5-11.5 70.7-4.8c1.3-.1 2.3-1 2.6-2.3s-.4-2.5-1.5-3.1zM30 158.9l7.6-4.4 8.4 17.8-8.2 3.7-7.8-17.1zm5.1 18.2l-7.5 3.3-7.6-15.7 7.5-4.4 7.6 16.8zM9.3 171l8.2-4.8 7.5 15.5-8.5 3.8L9.3 171zm157.1-51.3c-1.3.1-2.4 1.1-2.6 2.4-.2 1.3.6 2.6 1.8 3.1l29 10.5h-66.4c-.4 0-.8.1-1.2.2L48.6 171 40 153l127.4-74.6 4.3 2.2c1.1.6 2.4.3 3.3-.5l6.5-6.4-.9 9.3c-.1 1.2.5 2.3 1.6 2.8l57.9 29-73.7 4.9z"/></svg>