<svg xmlns="http://www.w3.org/2000/svg" width="32" height="32" viewBox="0 0 32 32"><g fill="#231F20"><path d="M20.6 8.4l.6-1 .1 1.2c0 .2.1.3.3.3l8 2.1-9.1 2.5c-.2.1-.3.2-.3.4s.1.3.3.3l3.9.6-8.3 1.7s-.1 0-.1.1l-8.9 6.5-1.5-2 14-12.7.6.1c.2.1.3 0 .4-.1zM6.9 23.3L6 24l-1.4-2 .8-.7zm-2.6-1l1.4 1.9-.9.6L3.5 23zm-2 1.8l.9-.8L4.6 25l-1 .7z"/><path d="M5.7 24.2l-1.4-1.9-.8.7 1.4 1.8.8-.6zM6 24l.9-.7-1.5-2-.8.7L6 24zM21.2 7.4l-.6 1c-.1.1-.2.2-.4.1l-.6-.1L5.7 21l1.5 2 8.9-6.5s.1 0 .1-.1l8.3-1.7-3.9-.6c-.2 0-.3-.2-.3-.3 0-.2.1-.3.3-.4l9.1-2.5-8-2.1c-.1 0-.2-.2-.3-.3l-.2-1.1zm-18 15.9l-.9.8 1.3 1.6 1-.7-1.4-1.7zm-1.6.5L19.3 7.7c.1-.1.2-.1.3-.1l.5.1 1.1-1.6c.1-.1.2-.1.4-.1.1 0 .3.2.3.3l.2 1.9 9 2.4c.2 0 .3.2.3.4s-.1.3-.3.4l-8.7 2.5 4.2.6c.2 0 .3.2.3.4s-.1.3-.3.4l-10.2 2.2-12.7 9s-.1 0-.1.1c-.1 0-.3 0-.4-.1l-1.7-2.1c-.1-.3-.1-.5.1-.6z"/></g></svg>