<?xml version="1.0" encoding="utf-8"?>
<!-- Generator: Adobe Illustrator 22.0.1, SVG Export Plug-In . SVG Version: 6.00 Build 0)  -->
<svg version="1.1" id="Layer_1" xmlns="http://www.w3.org/2000/svg" xmlns:xlink="http://www.w3.org/1999/xlink" x="0px" y="0px"
	 width="256px" height="256px" viewBox="0 0 256 256" enable-background="new 0 0 256 256" xml:space="preserve">
<line fill="none" stroke="#231F20" stroke-width="2.8976" stroke-linecap="round" stroke-linejoin="round" stroke-miterlimit="10" x1="170.3" y1="93.2" x2="187.7" y2="99.7"/>
<path fill="#231F20" d="M252,114.3l-65.5-32.8l1.5-15.3c0.1-1.2-0.5-2.3-1.6-2.8c-1.1-0.5-2.4-0.3-3.2,0.6l-10.6,10.6l-3.9-1.9
	c-0.9-0.4-1.9-0.4-2.7,0.1L4.2,167.4c-1.3,0.8-1.8,2.4-1.1,3.7l9.6,19.3c0.5,1,1.5,1.6,2.5,1.6c0.4,0,0.8-0.1,1.2-0.2l112.4-50.3
	h81.9c1.4,0,2.6-1,2.8-2.3c0.2-1.4-0.5-2.7-1.8-3.2l-31.5-11.5l70.7-4.8c1.3-0.1,2.3-1,2.6-2.3S253.1,114.9,252,114.3z M30,158.9
	l7.6-4.4l8.4,17.8l-8.2,3.7L30,158.9z M35.1,177.1l-7.5,3.3L20,164.7l7.5-4.4L35.1,177.1z M9.3,171l8.2-4.8l7.5,15.5l-8.5,3.8
	L9.3,171z M166.4,119.7c-1.3,0.1-2.4,1.1-2.6,2.4c-0.2,1.3,0.6,2.6,1.8,3.1l29,10.5h-66.4c-0.4,0-0.8,0.1-1.2,0.2l-78.4,35.1L40,153
	l127.4-74.6l4.3,2.2c1.1,0.6,2.4,0.3,3.3-0.5l6.5-6.4l-0.9,9.3c-0.1,1.2,0.5,2.3,1.6,2.8l57.9,29L166.4,119.7z"/>
</svg>
