<svg xmlns="http://www.w3.org/2000/svg" width="16" height="16" viewBox="0 0 16 16"><g fill="#231F20"><path d="M2.5 12.5l-.8-.9.4-.4.7.9zm-1-.7l.8.8-.4.4-.8-.8zM3 12l-.8-.9.4-.4.8.9zm7-9l.1.6c0 .1.1.1.1.2l4.1.7-4.4 1.6c-.1 0-.1.1-.1.2s.1.2.2.2l2 .1-4.1 1.2h-.1l-4.2 3.7-.9-1 6.5-7h.3c.1 0 .1 0 .2-.1L10 3z"/><path d="M10.1 3.5L10 3l-.3.5c0 .1-.1.1-.2.1h-.3l-6.5 7 .9 1 4.2-3.7h.1L12 6.6l-2-.1c-.1 0-.2-.1-.2-.2s0-.2.1-.2l4.5-1.7-4.1-.7c-.1 0-.2-.1-.2-.2zm-8.4 8.1l.8.8.4-.3-.8-.9-.4.4zm.6 1l-.8-.8-.4.4.8.8.4-.4zm-1.6-.5L9 3.2s.1-.1.2 0h.3l.5-.9c0-.1.1-.1.2-.1s.1.1.2.2l.2 1 4.7.8c.1 0 .2.1.2.2s0 .2-.1.2l-4.3 1.6 2.2.1c.1 0 .2.1.2.2s0 .2-.1.2L8 8.2l-6 5.2h-.1c-.1 0-.1 0-.2-.1l-1-1v-.2zm1.5-1l.8.9.4-.4-.9-.9-.3.4z"/></g></svg>