<svg xmlns="http://www.w3.org/2000/svg" width="64" height="64" viewBox="0 0 64 64"><path fill="none" stroke="#231F20" stroke-linecap="round" stroke-linejoin="round" stroke-miterlimit="10" stroke-width=".73" d="M42.8 23.9l4.3 1.6"/><path fill="#231F20" d="M62.7 29.2L46.4 21l.4-3.8c0-.3-.1-.6-.4-.7-.3-.1-.6-.1-.8.1L43 19.3l-1-.5c-.2-.1-.5-.1-.7 0L1.2 42.4c-.3.2-.4.6-.3.9l2.4 4.8c.1.2.4.4.6.4.1 0 .2 0 .3-.1l27.9-12.5h20.3c.3 0 .6-.2.7-.6.1-.3-.1-.7-.5-.8l-7.8-2.8 17.6-1.2c.3 0 .6-.3.6-.6s0-.6-.3-.7zm-55.1 11l1.9-1.1 2.1 4.4-2 .9-2-4.2zm1.3 4.6l-1.9.8-1.9-3.9L7 40.6l1.9 4.2zm-6.4-1.5l2-1.2 1.9 3.8-2.1.9-1.8-3.5zm38.9-12.8c-.3 0-.6.3-.7.6 0 .3.1.6.5.8l7.2 2.6H32c-.1 0-.2 0-.3.1l-19.5 8.7-2.1-4.5 31.6-18.5 1.1.5c.3.1.6.1.8-.1l1.6-1.6-.2 2.3c0 .3.1.6.4.7l14.4 7.2-18.4 1.2z"/></svg>