<?xml version="1.0" encoding="utf-8"?>
<!-- Generator: Adobe Illustrator 22.0.1, SVG Export Plug-In . SVG Version: 6.00 Build 0)  -->
<svg version="1.1" id="Layer_1" xmlns="http://www.w3.org/2000/svg" xmlns:xlink="http://www.w3.org/1999/xlink" x="0px" y="0px"
	 width="32px" height="32px" viewBox="0 0 32 32" enable-background="new 0 0 32 32" xml:space="preserve">
<line fill="none" stroke="#231F20" stroke-width="0.3626" stroke-linecap="round" stroke-linejoin="round" stroke-miterlimit="10" x1="20.3" y1="10.3" x2="22.6" y2="10.6"/>
<path fill="#231F20" d="M31.1,10.7l-9-2.4l-0.2-2c0-0.2-0.1-0.3-0.3-0.3c-0.1,0-0.3,0-0.4,0.2l-1,1.6l-0.5-0.1c-0.1,0-0.2,0-0.3,0.1
	L1.6,23.8c-0.1,0.1-0.2,0.3,0,0.5l1.7,2.2c0.1,0.1,0.2,0.2,0.4,0.1c0,0,0.1,0,0.1-0.1l12.7-9.2l10.2-2.2c0.2,0,0.3-0.2,0.3-0.4
	c0-0.2-0.1-0.3-0.3-0.3l-4.2-0.6l8.7-2.5c0.2,0,0.3-0.2,0.3-0.4C31.4,10.8,31.3,10.7,31.1,10.7z M4.6,22l0.8-0.8l1.5,2L6,24L4.6,22z
	 M5.7,24.2l-0.8,0.6L3.5,23l0.8-0.7L5.7,24.2z M2.3,24.1l0.9-0.8L4.5,25l-1,0.7L2.3,24.1z M20.6,13.6c-0.2,0-0.3,0.2-0.3,0.4
	c0,0.2,0.1,0.3,0.3,0.3l3.9,0.6l-8.3,1.7c0,0-0.1,0-0.1,0.1l-8.9,6.4l-1.5-2l14-12.7l0.6,0.2c0.2,0,0.3,0,0.4-0.2l0.6-1l0.1,1.2
	c0,0.1,0.1,0.3,0.3,0.3l8,2.1L20.6,13.6z"/>
</svg>
