<svg xmlns="http://www.w3.org/2000/svg" width="16" height="16" viewBox="0 0 16 16"><path fill="none" stroke="#231F20" stroke-linecap="round" stroke-linejoin="round" stroke-miterlimit="10" stroke-width=".18" d="M9.9 4.6l1.2.2"/><path fill="#231F20" d="M15.2 4.2l-4.7-.8-.2-1c0-.1-.1-.1-.2-.1s-.2 0-.2.1l-.4.8h-.3c-.1 0-.1 0-.2.1L.7 12.2c-.1.1-.1.2 0 .3l1 1c0 .1.1.1.2.1H2l6-5.2 5.1-1.5c.1 0 .1-.1.1-.2s-.1-.2-.2-.2l-2.2-.1 4.3-1.6c.1 0 .1-.1.1-.2.1-.4 0-.4 0-.4zm-13 6.9l.4-.4.9 1-.5.3-.8-.9zm.6 1l-.4.3-.8-.8.4-.4.8.9zm-1.7.1l.4-.5.8.8-.4.5-.8-.8zm8.8-6.1c-.1 0-.1.1-.1.2s.1.2.2.2l2 .1-4.1 1.2h-.1l-4.2 3.7-.9-1 6.5-7 .3.1c.1 0 .2 0 .2-.1L10 3l.1.6c0 .1.1.1.1.1l4.1.7-4.4 1.7z"/></svg>