<?xml version="1.0" encoding="utf-8"?>
<!-- Generator: Adobe Illustrator 22.0.1, SVG Export Plug-In . SVG Version: 6.00 Build 0)  -->
<svg version="1.1" id="Layer_1" xmlns="http://www.w3.org/2000/svg" xmlns:xlink="http://www.w3.org/1999/xlink" x="0px" y="0px"
	 width="64px" height="64px" viewBox="0 0 64 64" enable-background="new 0 0 64 64" xml:space="preserve">
<line fill="none" stroke="#231F20" stroke-width="0.7301" stroke-linecap="round" stroke-linejoin="round" stroke-miterlimit="10" x1="42.8" y1="23.9" x2="47.1" y2="25.5"/>
<path fill="#231F20" d="M62.7,29.2L46.4,21l0.4-3.8c0-0.3-0.1-0.6-0.4-0.7c-0.3-0.1-0.6-0.1-0.8,0.1L43,19.3l-1-0.5
	c-0.2-0.1-0.5-0.1-0.7,0L1.2,42.4c-0.3,0.2-0.4,0.6-0.3,0.9l2.4,4.8c0.1,0.2,0.4,0.4,0.6,0.4c0.1,0,0.2,0,0.3-0.1l27.9-12.5h20.3
	c0.3,0,0.6-0.2,0.7-0.6c0.1-0.3-0.1-0.7-0.5-0.8l-7.8-2.8l17.6-1.2c0.3,0,0.6-0.3,0.6-0.6S63,29.3,62.7,29.2z M7.6,40.2l1.9-1.1
	l2.1,4.4l-2,0.9L7.6,40.2z M8.9,44.8L7,45.6l-1.9-3.9L7,40.6L8.9,44.8z M2.5,43.3l2-1.2l1.9,3.8l-2.1,0.9L2.5,43.3z M41.4,30.5
	c-0.3,0-0.6,0.3-0.7,0.6c0,0.3,0.1,0.6,0.5,0.8l7.2,2.6H32c-0.1,0-0.2,0-0.3,0.1l-19.5,8.7l-2.1-4.5l31.6-18.5l1.1,0.5
	c0.3,0.1,0.6,0.1,0.8-0.1l1.6-1.6L45,21.4c0,0.3,0.1,0.6,0.4,0.7l14.4,7.2L41.4,30.5z"/>
</svg>
